<svg width="200" height="200" viewBox="0 0 200 200" xmlns="http://www.w3.org/2000/svg">
  <defs>
    <!-- Gradients -->
    <linearGradient id="blueGradient" x1="0%" y1="0%" x2="100%" y2="100%">
      <stop offset="0%" style="stop-color:#4ECDC4;stop-opacity:1" />
      <stop offset="50%" style="stop-color:#44A08D;stop-opacity:1" />
      <stop offset="100%" style="stop-color:#093637;stop-opacity:1" />
    </linearGradient>
    
    <linearGradient id="greenGradient" x1="0%" y1="0%" x2="100%" y2="100%">
      <stop offset="0%" style="stop-color:#A8E6CF;stop-opacity:1" />
      <stop offset="50%" style="stop-color:#7FCDCD;stop-opacity:1" />
      <stop offset="100%" style="stop-color:#41B3A3;stop-opacity:1" />
    </linearGradient>
  </defs>
  
  <!-- Main chat bubble with animation -->
  <g>
    <path d="M 20 30 
             Q 20 10 40 10 
             L 120 10 
             Q 140 10 140 30 
             L 140 80 
             Q 140 100 120 100 
             L 60 100 
             L 40 120 
             Q 30 130 20 120 
             L 20 100 
             Q 20 80 20 60 
             Z" 
          fill="url(#blueGradient)">
      <!-- Floating animation -->
      <animateTransform
        attributeName="transform"
        type="translate"
        values="0,0; 0,-5; 0,0"
        dur="2s"
        repeatCount="indefinite"/>
    </path>
    
    <!-- Animated dots in main bubble -->
    <g>
      <circle cx="50" cy="55" r="6" fill="#FFFFFF">
        <animate attributeName="opacity" values="0.3;1;0.3" dur="1.5s" repeatCount="indefinite" begin="0s"/>
      </circle>
      <circle cx="80" cy="55" r="6" fill="#FFFFFF">
        <animate attributeName="opacity" values="0.3;1;0.3" dur="1.5s" repeatCount="indefinite" begin="0.5s"/>
      </circle>
      <circle cx="110" cy="55" r="6" fill="#FFFFFF">
        <animate attributeName="opacity" values="0.3;1;0.3" dur="1.5s" repeatCount="indefinite" begin="1s"/>
      </circle>
    </g>
  </g>
  
  <!-- Secondary chat bubble with animation -->
  <g>
    <path d="M 80 90 
             Q 80 70 100 70 
             L 160 70 
             Q 180 70 180 90 
             L 180 140 
             Q 180 160 160 160 
             L 120 160 
             L 180 180 
             Q 190 185 180 190 
             L 160 180 
             Q 140 180 120 180 
             L 100 180 
             Q 80 180 80 160 
             Z" 
          fill="url(#greenGradient)">
      <!-- Floating animation with delay -->
      <animateTransform
        attributeName="transform"
        type="translate"
        values="0,0; 0,-3; 0,0"
        dur="2.5s"
        repeatCount="indefinite"
        begin="0.5s"/>
    </path>
    
    <!-- Animated dots in secondary bubble -->
    <g>
      <circle cx="110" cy="125" r="4" fill="#FFFFFF">
        <animate attributeName="opacity" values="0.3;1;0.3" dur="1.8s" repeatCount="indefinite" begin="0.3s"/>
      </circle>
      <circle cx="130" cy="125" r="4" fill="#FFFFFF">
        <animate attributeName="opacity" values="0.3;1;0.3" dur="1.8s" repeatCount="indefinite" begin="0.8s"/>
      </circle>
      <circle cx="150" cy="125" r="4" fill="#FFFFFF">
        <animate attributeName="opacity" values="0.3;1;0.3" dur="1.8s" repeatCount="indefinite" begin="1.3s"/>
      </circle>
    </g>
  </g>
  
  <!-- Pulse effect around bubbles -->
  <circle cx="100" cy="100" r="80" fill="none" stroke="url(#blueGradient)" stroke-width="2" opacity="0.3">
    <animate attributeName="r" values="70;90;70" dur="3s" repeatCount="indefinite"/>
    <animate attributeName="opacity" values="0.3;0.1;0.3" dur="3s" repeatCount="indefinite"/>
  </circle>
</svg>
